<svg width="25" height="24" viewBox="0 0 25 24" fill="none" xmlns="http://www.w3.org/2000/svg">
<g id="Social Networks Icons">
<g id="Group">
<path id="Vector" d="M21.5715 11V8H20.0715V11H17.0715V12.5H20.0715V15.5H21.5715V12.5H24.5715V11H21.5715Z" fill="white"/>
</g>
<g id="Group_2">
<path id="Vector_2" d="M8.07153 10V13H12.315C11.6955 14.746 10.0275 16 8.07153 16C5.59053 16 3.57153 13.981 3.57153 11.5C3.57153 9.019 5.59053 7 8.07153 7C9.14703 7 10.182 7.3855 10.986 8.086L12.957 5.824C11.607 4.648 9.87303 4 8.07153 4C3.93603 4 0.571533 7.3645 0.571533 11.5C0.571533 15.6355 3.93603 19 8.07153 19C12.207 19 15.5715 15.6355 15.5715 11.5V10H8.07153Z" fill="white"/>
</g>
</g>
</svg>
