<svg width="25" height="25" viewBox="0 0 25 25" fill="none" xmlns="http://www.w3.org/2000/svg">
<g id="Social Networks Icons">
<path id="Vector" d="M16.4504 12.9796C16.4504 15.1724 14.6726 16.9502 12.4798 16.9502C10.287 16.9502 8.50922 15.1724 8.50922 12.9796C8.50922 10.7868 10.287 9.00903 12.4798 9.00903C14.6726 9.00903 16.4504 10.7868 16.4504 12.9796Z" fill="white"/>
<path id="Vector_2" d="M19.1855 0.979492H5.77373C2.85438 0.979492 0.479614 3.35426 0.479614 6.27361V19.6854C0.479614 22.6047 2.85438 24.9795 5.77373 24.9795H19.1855C22.1048 24.9795 24.4796 22.6047 24.4796 19.6854V6.27361C24.4796 3.35426 22.1048 0.979492 19.1855 0.979492ZM12.4796 19.5971C8.8306 19.5971 5.86197 16.6285 5.86197 12.9795C5.86197 9.33048 8.8306 6.36185 12.4796 6.36185C16.1286 6.36185 19.0973 9.33048 19.0973 12.9795C19.0973 16.6285 16.1286 19.5971 12.4796 19.5971ZM20.0679 6.71479C19.3368 6.71479 18.7443 6.1223 18.7443 5.39126C18.7443 4.66021 19.3368 4.06773 20.0679 4.06773C20.7989 4.06773 21.3914 4.66021 21.3914 5.39126C21.3914 6.1223 20.7989 6.71479 20.0679 6.71479Z" fill="white"/>
</g>
</svg>
